<svg width="17" height="16" viewBox="0 0 17 16" fill="none" xmlns="http://www.w3.org/2000/svg">
<path d="M15.9388 8.18333C15.9388 3.60833 12.3888 0.5 8.4388 0.5C4.53047 0.5 0.938802 3.54167 0.938802 8.23333C0.438802 8.51667 0.105469 9.05 0.105469 9.66667V11.3333C0.105469 12.25 0.855469 13 1.77214 13H2.60547V7.91667C2.60547 4.69167 5.2138 2.08333 8.4388 2.08333C11.6638 2.08333 14.2721 4.69167 14.2721 7.91667V13.8333H7.60547V15.5H14.2721C15.1888 15.5 15.9388 14.75 15.9388 13.8333V12.8167C16.4305 12.5583 16.7721 12.05 16.7721 11.45V9.53333C16.7721 8.95 16.4305 8.44167 15.9388 8.18333Z" fill="#4872F2"/>
<path d="M5.9388 9.66667C6.39904 9.66667 6.77214 9.29357 6.77214 8.83333C6.77214 8.3731 6.39904 8 5.9388 8C5.47856 8 5.10547 8.3731 5.10547 8.83333C5.10547 9.29357 5.47856 9.66667 5.9388 9.66667Z" fill="#4872F2"/>
<path d="M10.9388 9.66667C11.399 9.66667 11.7721 9.29357 11.7721 8.83333C11.7721 8.3731 11.399 8 10.9388 8C10.4786 8 10.1055 8.3731 10.1055 8.83333C10.1055 9.29357 10.4786 9.66667 10.9388 9.66667Z" fill="#4872F2"/>
<path d="M13.4389 7.19167C13.0389 4.81667 10.9722 3 8.48052 3C5.95552 3 3.23886 5.09167 3.45552 8.375C5.51386 7.53333 7.06386 5.7 7.50552 3.46667C8.59719 5.65833 10.8389 7.16667 13.4389 7.19167Z" fill="#4872F2"/>
</svg>
